#!OML:ASF X:\für Bonn\!DataBase\2005_08_10_Bjorn_Final\c3d\bjorn.ASF
:FULLY-SPECIFIED
:DEGREES
382
root -0.846257 18.9132 4.17658 -542.102 34.4326 -538.109
lowerback -4.31726 6.05847 2.12646
upperback 7.93329 8.7391 -2.47304
thorax 11.6758 4.73105 -2.50919
lowerneck 3.20542 -3.79014 10.6304
upperneck 26.4134 -2.5242 -0.815652
head 7.46411 0.833327 -2.06049
rclavicle -1.78906e-015 3.73715e-014
rhumerus 35.2158 20.7515 -67.4305
rradius 80.302
rwrist 18.6043
rhand -39.1143 16.2605
rfingers 7.12502
rthumb -12.1139 -13.3688
lclavicle -1.78906e-015 3.73715e-014
lhumerus 19.1328 -36.3966 63.7363
lradius 76.5389
lwrist -17.6222
lhand -61.3259 -28.5427
lfingers 7.12502
lthumb -33.4132 -1.63057
rfemur 363.612 8.7632 -351.073
rtibia 39.833
rfoot -6.08002 5.13289
rtoes -35.4276
lfemur -15.2555 -0.61185 -13.246
ltibia 37.3695
lfoot -12.9457 5.68229
ltoes -21.7315
383
root -0.829498 18.9502 4.23487 -541.859 34.3705 -538.001
lowerback -4.51578 6.05798 2.13004
upperback 7.95029 8.72942 -2.42888
thorax 11.8077 4.72033 -2.44148
lowerneck 3.50432 -3.90977 10.4243
upperneck 26.5774 -2.6257 -0.57763
head 7.47014 0.814903 -1.9464
rclavicle 1.70955e-014 -1.51076e-014
rhumerus 32.1563 21.4847 -67.6065
rradius 80.938
rwrist 17.9924
rhand -38.3698 15.6435
rfingers 7.12502
rthumb -11.3959 -14.0268
lclavicle 1.70955e-014 -1.51076e-014
lhumerus 16.873 -37.5909 64.3562
lradius 75.0071
lwrist -19.3353
lhand -60.1226 -28.3165
lfingers 7.12502
lthumb -32.2686 -1.16477
rfemur 363.204 8.51919 -351.044
rtibia 39.8179
rfoot -5.75371 5.85347
rtoes -34.529
lfemur -15.1599 -0.56888 -12.9751
ltibia 36.5557
lfoot -12.465 5.5121
ltoes -21.5097
384
root -0.812102 18.9826 4.29279 -541.8 34.2946 -538.117
lowerback -4.64857 6.0372 1.95054
upperback 7.98521 8.72091 -2.42251
thorax 11.8968 4.6997 -2.32182
lowerneck 3.83636 -4.02303 10.2261
upperneck 26.7089 -2.70419 -0.410969
head 7.45924 0.798844 -1.85585
rclavicle -5.64548e-014 2.14687e-014
rhumerus 29.1029 22.2733 -67.9183
rradius 81.3132
rwrist 17.1381
rhand -37.5584 15.3736
rfingers 7.12502
rthumb -10.6133 -14.3384
lclavicle -5.64548e-014 2.14687e-014
lhumerus 14.4781 -38.7315 65.1768
lradius 73.4148
lwrist -20.5309
lhand -58.8566 -27.7007
lfingers 7.12502
lthumb -31.0627 -0.31123
rfemur 362.894 8.25613 -351.243
rtibia 39.7627
rfoot -5.45134 6.6566
rtoes -33.46
lfemur -15.0207 -0.550544 -12.913
ltibia 35.7778
lfoot -12.0142 5.34779
ltoes -21.3065
385
root -0.795273 19.0103 4.35209 -541.711 34.2007 -538.193
lowerback -4.7882 6.01628 1.82182
upperback 8.03697 8.71123 -2.4214
thorax 12.0193 4.68398 -2.23319
lowerneck 4.12128 -4.12478 10.0528
upperneck 26.8285 -2.78276 -0.234036
head 7.45308 0.782947 -1.76655
rclavicle -1.11319e-014 -3.49861e-014
rhumerus 26.1439 22.9856 -68.4347
rradius 81.351
rwrist 16.2345
rhand -36.7911 15.1137
rfingers 7.12502
rthumb -9.87313 -14.6348
lclavicle -1.11319e-014 -3.49861e-014
lhumerus 12.0301 -39.8061 66.1514
lradius 71.6962
lwrist -21.0963
lhand -57.5475 -26.4326
lfingers 7.12502
lthumb -29.8141 1.18817
rfemur 362.614 7.95932 -351.414
rtibia 39.6658
rfoot -5.19331 7.50921
rtoes -32.5259
lfemur -14.925 -0.612587 -12.8173
ltibia 35.0551
lfoot -11.5999 5.25297
ltoes -21.0924
386
root -0.777934 19.0334 4.41203 -541.566 34.1208 -538.17
lowerback -4.91523 6.01781 1.81041
upperback 8.07939 8.7198 -2.42319
thorax 12.1453 4.6871 -2.20961
lowerneck 4.30709 -4.23512 9.98069
upperneck 26.9679 -2.88016 -0.138374
head 7.46696 0.759944 -1.72328
rclavicle -5.28767e-014 5.56597e-014
rhumerus 23.2371 23.5371 -69.244
rradius 81.0071
rwrist 15.2917
rhand -36.192 14.8205
rfingers 7.12502
rthumb -9.29507 -14.9546
lclavicle -5.28767e-014 5.56597e-014
lhumerus 9.61058 -40.9482 67.1206
lradius 69.8907
lwrist -20.7821
lhand -56.1558 -25.2197
lfingers 7.12502
lthumb -28.4851 2.63142
rfemur 362.364 7.64441 -351.504
rtibia 39.5185
rfoot -4.9165 8.35922
rtoes -31.3497
lfemur -14.8679 -0.690887 -12.6256
ltibia 34.4099
lfoot -11.2093 5.19115
ltoes -20.9042
387
root -0.761476 19.0528 4.47216 -541.327 34.0464 -538.004
lowerback -5.03565 6.02708 1.93548
upperback 8.11171 8.71845 -2.39776
thorax 12.2726 4.69474 -2.23345
lowerneck 4.3846 -4.32692 9.9148
upperneck 27.1529 -2.97099 -0.0422874
head 7.51535 0.741782 -1.68207
rclavicle -2.38542e-015 1.51076e-014
rhumerus 20.3813 23.9369 -70.2726
rradius 80.2884
rwrist 14.4031
rhand -35.8214 14.4749
rfingers 7.12502
rthumb -8.9375 -15.3158
lclavicle -2.38542e-015 1.51076e-014
lhumerus 7.23486 -42.1135 68.1242
lradius 67.9926
lwrist -19.6225
lhand -54.5117 -24.4672
lfingers 7.12502
lthumb -26.913 3.63661
rfemur 362.133 7.36046 -351.444
rtibia 39.3217
rfoot -4.70899 9.14422
rtoes -30.4122
lfemur -14.8778 -0.80421 -12.2942
ltibia 33.8615
lfoot -10.8778 5.12672
ltoes -20.4464
388
root -0.745179 19.0677 4.5337 -541.065 33.9399 -537.779
lowerback -5.13473 6.02599 2.12683
upperback 8.14206 8.69382 -2.36181
thorax 12.3921 4.69674 -2.28834
lowerneck 4.54556 -4.40913 9.86238
upperneck 27.2454 -3.03996 0.0355334
head 7.51879 0.726722 -1.64713
rclavicle -1.86858e-014 2.06736e-014
rhumerus 17.5446 24.1752 -71.4788
rradius 79.3955
rwrist 13.4749
rhand -35.2325 13.8486
rfingers 7.12502
rthumb -8.36919 -15.9656
lclavicle -1.86858e-014 2.06736e-014
lhumerus 4.8801 -43.2041 69.2414
lradius 65.945
lwrist -17.8837
lhand -52.8079 -24.0197
lfingers 7.12502
lthumb -25.2818 4.32501
rfemur 361.972 7.10863 -351.295
rtibia 39.0728
rfoot -4.5983 9.87999
rtoes -29.7628
lfemur -14.9614 -0.77551 -11.898
ltibia 33.4245
lfoot -10.5766 4.90788
ltoes -20.1969
389
root -0.7288 19.0778 4.59658 -540.798 33.8374 -537.574
lowerback -5.26082 6.00472 2.29009
upperback 8.18424 8.6425 -2.31006
thorax 12.5322 4.68243 -2.31219
lowerneck 4.6176 -4.4511 9.75051
upperneck 27.3623 -3.0704 0.095926
head 7.54746 0.720279 -1.60809
rclavicle -2.38542e-015 -9.54166e-015
rhumerus 14.7622 24.2103 -72.8527
rradius 78.2763
rwrist 12.609
rhand -34.2197 13.1789
rfingers 7.12502
rthumb -7.39168 -16.6719
lclavicle -2.38542e-015 -9.54166e-015
lhumerus 2.56224 -44.1058 70.5092
lradius 63.7505
lwrist -15.6173
lhand -50.2208 -22.7038
lfingers 7.12502
lthumb -22.801 5.96861
rfemur 361.819 6.89293 -351.145
rtibia 38.777
rfoot -4.5739 10.575
rtoes -29.2774
lfemur -15.1277 -0.598358 -11.511
ltibia 33.1019
lfoot -10.3146 4.55004
ltoes -19.8268
390
root -0.712521 19.082 4.66161 -540.532 33.7287 -537.389
lowerback -5.38794 5.9847 2.46023
upperback 8.23196 8.59542 -2.27648
thorax 12.6845 4.67287 -2.35806
lowerneck 4.64888 -4.48454 9.6965
upperneck 27.437 -3.09505 0.0909404
head 7.56659 0.710337 -1.6012
rclavicle -7.5737e-014 -7.95139e-016
rhumerus 12.0663 23.9217 -74.3303
rradius 76.9445
rwrist 11.832
rhand -32.6358 12.4509
rfingers 7.12502
rthumb -5.86264 -17.448
lclavicle -7.5737e-014 -7.95139e-016
lhumerus 0.323001 -44.8142 71.8963
lradius 61.3584
lwrist -12.9935
lhand -47.1402 -20.9779
lfingers 7.12502
lthumb -19.8421 8.02923
rfemur 361.677 6.69447 -351.003
rtibia 38.444
rfoot -4.62624 11.2424
rtoes -28.9584
lfemur -15.3914 -0.313063 -11.133
ltibia 32.8964
lfoot -10.0841 4.0867
ltoes -19.586
391
root -0.696265 19.0817 4.72824 -540.269 33.611 -537.207
lowerback -5.50418 5.94464 2.62427
upperback 8.28072 8.51856 -2.22655
thorax 12.8247 4.64766 -2.39006
lowerneck 4.57522 -4.48695 9.54574
upperneck 27.5697 -3.09474 0.0845119
head 7.62519 0.70328 -1.5794
rclavicle 1.61016e-014 -6.36111e-015
rhumerus 9.51823 23.4259 -75.8285
rradius 75.3515
rwrist 11.2809
rhand -30.6768 11.608
rfingers 7.12502
rthumb -3.97108 -18.3348
lclavicle 1.61016e-014 -6.36111e-015
lhumerus -1.82738 -45.2789 73.407
lradius 58.7888
lwrist -9.97401
lhand -43.9117 -19.0408
lfingers 7.12502
lthumb -16.7362 10.2578
rfemur 361.567 6.51411 -350.846
rtibia 38.0818
rfoot -4.80904 11.9117
rtoes -28.7575
lfemur -15.7227 0.0892978 -10.7547
ltibia 32.8001
lfoot -9.87189 3.52697
ltoes -19.3517
392
root -0.680004 19.0762 4.79656 -540 33.4726 -537.045
lowerback -5.63549 5.89431 2.76743
upperback 8.33427 8.42856 -2.16971
thorax 12.9739 4.61396 -2.40416
lowerneck 4.45721 -4.47023 9.37596
upperneck 27.6817 -3.078 0.0528709
head 7.68445 0.695223 -1.56307
rclavicle 4.17448e-014 1.59028e-015
rhumerus 7.09812 22.6842 -77.3072
rradius 73.5534
rwrist 11.0745
rhand -28.626 10.835
rfingers 7.12502
rthumb -1.99051 -19.1354
lclavicle 4.17448e-014 1.59028e-015
lhumerus -3.83005 -45.4631 74.9921
lradius 56.0211
lwrist -6.8131
lhand -40.7303 -16.913
lfingers 7.12502
lthumb -13.6717 12.6179
rfemur 361.455 6.3257 -350.699
rtibia 37.7003
rfoot -5.13202 12.5858
rtoes -28.8639
lfemur -16.133 0.38234 -10.3989
ltibia 32.8066
lfoot -9.69603 3.03922
ltoes -19.189
393
root -0.662972 19.0666 4.8671 -539.748 33.337 -536.901
lowerback -5.72903 5.84709 2.90149
upperback 8.3687 8.34385 -2.12736
thorax 13.079 4.58291 -2.43393
lowerneck 4.36002 -4.46406 9.2668
upperneck 27.7763 -3.06107 -0.042667
head 7.73192 0.686861 -1.57799
rclavicle 5.30755e-014 -2.14687e-014
rhumerus 4.82193 21.7307 -78.8087
rradius 71.4895
rwrist 10.8279
rhand -26.546 10.3743
rfingers 7.12502
rthumb 0.0184469 -19.6055
lclavicle 5.30755e-014 -2.14687e-014
lhumerus -5.72198 -45.4002 76.5778
lradius 53.0773
lwrist -3.8451
lhand -37.7035 -14.529
lfingers 7.12502
lthumb -10.7533 15.1758
rfemur 361.369 6.16196 -350.537
rtibia 37.3063
rfoot -5.56058 13.1929
rtoes -29.1173
lfemur -16.5889 0.742963 -10.0523
ltibia 32.8944
lfoot -9.55712 2.47892
ltoes -18.8053
394
root -0.646734 19.0537 4.93943 -539.509 33.1712 -536.761
lowerback -5.80701 5.78375 3.04792
upperback 8.41594 8.23709 -2.08041
thorax 13.1886 4.54349 -2.47072
lowerneck 4.23333 -4.44107 9.08641
upperneck 27.8636 -3.03387 -0.112853
head 7.78381 0.675565 -1.57264
rclavicle -3.97569e-016 -7.95139e-016
rhumerus 2.75235 20.6356 -80.2172
rradius 69.241
rwrist 10.2866
rhand -24.5346 9.89669
rfingers 7.12502
rthumb 1.96108 -20.074
lclavicle -3.97569e-016 -7.95139e-016
lhumerus -7.38619 -45.0467 78.1049
lradius 49.9403
lwrist -1.26509
lhand -34.8083 -12.1318
lfingers 7.12502
lthumb -7.95977 17.6983
rfemur 361.324 5.95619 -350.367
rtibia 36.9001
rfoot -6.10601 13.7614
rtoes -29.5499
lfemur -17.0946 1.17001 -9.71112
ltibia 33.0538
lfoot -9.4305 1.84154
ltoes -18.6137
395
root -0.629824 19.0369 5.01321 -539.345 33.0088 -536.701
lowerback -5.82148 5.71366 3.12409
upperback 8.44508 8.13014 -2.04452
thorax 13.2277 4.49835 -2.49012
lowerneck 4.18499 -4.42312 8.91156
upperneck 27.8976 -2.99744 -0.214655
head 7.80349 0.663689 -1.57727
rclavicle 4.92986e-014 1.82882e-014
rhumerus 0.745811 19.3717 -81.5787
rradius 66.9135
rwrist 9.60521
rhand -22.6241 9.08676
rfingers 7.12502
rthumb 3.80609 -20.859
lclavicle 4.92986e-014 1.82882e-014
lhumerus -8.9274 -44.4347 79.5978
lradius 46.667
lwrist 1.16136
lhand -31.6638 -10.1772
lfingers 7.12502
lthumb -4.92415 19.7456
rfemur 361.321 5.74342 -350.257
rtibia 36.4839
rfoot -6.69773 14.2776
rtoes -29.9505
lfemur -17.6036 1.76591 -9.44581
ltibia 33.2627
lfoot -9.29561 1.02591
ltoes -18.3316
396
root -0.61288 19.0159 5.08911 -539.288 32.8337 -536.763
lowerback -5.79381 5.63942 3.12612
upperback 8.50687 8.03921 -2.0461
thorax 13.2751 4.46002 -2.50904
lowerneck 4.07521 -4.39553 8.681
upperneck 27.9603 -2.97591 -0.208835
head 7.84671 0.649568 -1.53779
rclavicle 8.11041e-014 -2.54444e-014
rhumerus -1.10402 17.8325 -82.868
rradius 64.5817
rwrist 8.97479
rhand -20.559 7.94844
rfingers 7.12502
rthumb 5.80015 -21.9522
lclavicle 8.11041e-014 -2.54444e-014
lhumerus -10.1674 -43.5092 80.9325
lradius 43.2276
lwrist 3.34498
lhand -28.0717 -8.49867
lfingers 7.12502
lthumb -1.45515 21.4761
rfemur 361.402 5.58526 -350.244
rtibia 36.0533
rfoot -7.31902 14.7501
rtoes -29.8219
lfemur -18.1124 2.52748 -9.30067
ltibia 33.5123
lfoot -9.15301 0.0344037
ltoes -18.0516
